<mxfile host="65bd71144e" pages="3">
    <diagram id="Wl4qulSHE2KzQboeC3-v" name="use_cases_user">
        <mxGraphModel dx="1482" dy="907" grid="1" gridSize="10" guides="1" tooltips="1" connect="1" arrows="1" fold="1" page="1" pageScale="1" pageWidth="850" pageHeight="1100" math="0" shadow="0">
            <root>
                <mxCell id="0"/>
                <mxCell id="1" parent="0"/>
                <mxCell id="4J8BJNrxtRhoFNBsM2rI-1" value="" style="rounded=0;whiteSpace=wrap;html=1;" parent="1" vertex="1">
                    <mxGeometry x="30" y="20" width="570" height="620" as="geometry"/>
                </mxCell>
                <mxCell id="LdzVatGwYnMP8f3G-WIb-1" value="" style="rounded=0;whiteSpace=wrap;html=1;" parent="1" vertex="1">
                    <mxGeometry x="110" y="60" width="440" height="550" as="geometry"/>
                </mxCell>
                <mxCell id="8nafHXj3Q9hOZ4fB2ylQ-1" value="User" style="shape=umlActor;verticalLabelPosition=bottom;verticalAlign=top;html=1;outlineConnect=0;" parent="1" vertex="1">
                    <mxGeometry x="50" y="220" width="30" height="60" as="geometry"/>
                </mxCell>
                <mxCell id="8nafHXj3Q9hOZ4fB2ylQ-3" value="se connecter" style="ellipse;whiteSpace=wrap;html=1;" parent="1" vertex="1">
                    <mxGeometry x="170" y="110" width="120" height="60" as="geometry"/>
                </mxCell>
                <mxCell id="8nafHXj3Q9hOZ4fB2ylQ-4" value="faire une recheche" style="ellipse;whiteSpace=wrap;html=1;" parent="1" vertex="1">
                    <mxGeometry x="170" y="220" width="120" height="60" as="geometry"/>
                </mxCell>
                <mxCell id="8nafHXj3Q9hOZ4fB2ylQ-5" value="rendre un livre" style="ellipse;whiteSpace=wrap;html=1;" parent="1" vertex="1">
                    <mxGeometry x="365" y="320" width="120" height="60" as="geometry"/>
                </mxCell>
                <mxCell id="8nafHXj3Q9hOZ4fB2ylQ-6" value="emprunter un livre" style="ellipse;whiteSpace=wrap;html=1;" parent="1" vertex="1">
                    <mxGeometry x="170" y="320" width="120" height="60" as="geometry"/>
                </mxCell>
                <mxCell id="8nafHXj3Q9hOZ4fB2ylQ-7" value="voir mes retards" style="ellipse;whiteSpace=wrap;html=1;" parent="1" vertex="1">
                    <mxGeometry x="360" y="510" width="120" height="60" as="geometry"/>
                </mxCell>
                <mxCell id="8nafHXj3Q9hOZ4fB2ylQ-8" value="consulter mes emprunts" style="ellipse;whiteSpace=wrap;html=1;" parent="1" vertex="1">
                    <mxGeometry x="170" y="420" width="120" height="60" as="geometry"/>
                </mxCell>
                <mxCell id="8nafHXj3Q9hOZ4fB2ylQ-10" value="prolonger &lt;br&gt;un emprunt" style="ellipse;whiteSpace=wrap;html=1;" parent="1" vertex="1">
                    <mxGeometry x="365" y="420" width="120" height="60" as="geometry"/>
                </mxCell>
                <mxCell id="8nafHXj3Q9hOZ4fB2ylQ-11" value="" style="endArrow=classic;html=1;entryX=0;entryY=0.5;entryDx=0;entryDy=0;exitX=0.5;exitY=0.5;exitDx=0;exitDy=0;exitPerimeter=0;" parent="1" source="8nafHXj3Q9hOZ4fB2ylQ-1" target="8nafHXj3Q9hOZ4fB2ylQ-4" edge="1">
                    <mxGeometry width="50" height="50" relative="1" as="geometry">
                        <mxPoint x="80" y="340" as="sourcePoint"/>
                        <mxPoint x="130" y="290" as="targetPoint"/>
                    </mxGeometry>
                </mxCell>
                <mxCell id="8nafHXj3Q9hOZ4fB2ylQ-12" value="" style="endArrow=classic;html=1;exitX=0.5;exitY=0.5;exitDx=0;exitDy=0;exitPerimeter=0;entryX=0;entryY=0.5;entryDx=0;entryDy=0;" parent="1" source="8nafHXj3Q9hOZ4fB2ylQ-1" target="8nafHXj3Q9hOZ4fB2ylQ-3" edge="1">
                    <mxGeometry width="50" height="50" relative="1" as="geometry">
                        <mxPoint x="400" y="300" as="sourcePoint"/>
                        <mxPoint x="450" y="250" as="targetPoint"/>
                    </mxGeometry>
                </mxCell>
                <mxCell id="8nafHXj3Q9hOZ4fB2ylQ-13" value="" style="endArrow=classic;html=1;exitX=0.5;exitY=0.5;exitDx=0;exitDy=0;exitPerimeter=0;entryX=0;entryY=0.5;entryDx=0;entryDy=0;" parent="1" source="8nafHXj3Q9hOZ4fB2ylQ-1" target="8nafHXj3Q9hOZ4fB2ylQ-6" edge="1">
                    <mxGeometry width="50" height="50" relative="1" as="geometry">
                        <mxPoint x="400" y="300" as="sourcePoint"/>
                        <mxPoint x="450" y="250" as="targetPoint"/>
                    </mxGeometry>
                </mxCell>
                <mxCell id="8nafHXj3Q9hOZ4fB2ylQ-14" value="consulter livres" style="ellipse;whiteSpace=wrap;html=1;" parent="1" vertex="1">
                    <mxGeometry x="360" y="220" width="120" height="60" as="geometry"/>
                </mxCell>
                <mxCell id="8nafHXj3Q9hOZ4fB2ylQ-15" value="include" style="endArrow=classic;html=1;dashed=1;exitX=1;exitY=0;exitDx=0;exitDy=0;entryX=0;entryY=0;entryDx=0;entryDy=0;" parent="1" source="8nafHXj3Q9hOZ4fB2ylQ-4" target="8nafHXj3Q9hOZ4fB2ylQ-14" edge="1">
                    <mxGeometry x="0.0105" width="50" height="50" relative="1" as="geometry">
                        <mxPoint x="400" y="300" as="sourcePoint"/>
                        <mxPoint x="330" y="170" as="targetPoint"/>
                        <mxPoint as="offset"/>
                    </mxGeometry>
                </mxCell>
                <mxCell id="8nafHXj3Q9hOZ4fB2ylQ-18" value="" style="endArrow=none;html=1;dashed=1;entryX=1;entryY=0;entryDx=0;entryDy=0;exitX=0;exitY=0;exitDx=0;exitDy=0;endFill=0;startArrow=classic;startFill=1;" parent="1" source="8nafHXj3Q9hOZ4fB2ylQ-5" target="8nafHXj3Q9hOZ4fB2ylQ-6" edge="1">
                    <mxGeometry width="50" height="50" relative="1" as="geometry">
                        <mxPoint x="400" y="300" as="sourcePoint"/>
                        <mxPoint x="290" y="290" as="targetPoint"/>
                    </mxGeometry>
                </mxCell>
                <mxCell id="8nafHXj3Q9hOZ4fB2ylQ-19" value="include" style="edgeLabel;html=1;align=center;verticalAlign=middle;resizable=0;points=[];" parent="8nafHXj3Q9hOZ4fB2ylQ-18" vertex="1" connectable="0">
                    <mxGeometry x="-0.4561" y="-1" relative="1" as="geometry">
                        <mxPoint x="-23" y="-11" as="offset"/>
                    </mxGeometry>
                </mxCell>
                <mxCell id="8nafHXj3Q9hOZ4fB2ylQ-20" value="" style="endArrow=none;html=1;dashed=1;exitX=1;exitY=1;exitDx=0;exitDy=0;entryX=0;entryY=0.5;entryDx=0;entryDy=0;startArrow=classic;startFill=1;endFill=0;" parent="1" source="8nafHXj3Q9hOZ4fB2ylQ-8" target="8nafHXj3Q9hOZ4fB2ylQ-7" edge="1">
                    <mxGeometry width="50" height="50" relative="1" as="geometry">
                        <mxPoint x="400" y="300" as="sourcePoint"/>
                        <mxPoint x="500" y="420" as="targetPoint"/>
                    </mxGeometry>
                </mxCell>
                <mxCell id="8nafHXj3Q9hOZ4fB2ylQ-21" value="extend" style="edgeLabel;html=1;align=center;verticalAlign=middle;resizable=0;points=[];" parent="8nafHXj3Q9hOZ4fB2ylQ-20" vertex="1" connectable="0">
                    <mxGeometry x="0.2857" y="-2" relative="1" as="geometry">
                        <mxPoint x="-8" y="-12" as="offset"/>
                    </mxGeometry>
                </mxCell>
                <mxCell id="8nafHXj3Q9hOZ4fB2ylQ-22" value="" style="endArrow=none;html=1;dashed=1;entryX=0;entryY=0.5;entryDx=0;entryDy=0;exitX=0.913;exitY=0.16;exitDx=0;exitDy=0;exitPerimeter=0;startArrow=classic;startFill=1;endFill=0;" parent="1" source="8nafHXj3Q9hOZ4fB2ylQ-8" target="8nafHXj3Q9hOZ4fB2ylQ-10" edge="1">
                    <mxGeometry width="50" height="50" relative="1" as="geometry">
                        <mxPoint x="400" y="300" as="sourcePoint"/>
                        <mxPoint x="450" y="250" as="targetPoint"/>
                    </mxGeometry>
                </mxCell>
                <mxCell id="8nafHXj3Q9hOZ4fB2ylQ-23" value="extend" style="edgeLabel;html=1;align=center;verticalAlign=middle;resizable=0;points=[];" parent="8nafHXj3Q9hOZ4fB2ylQ-22" vertex="1" connectable="0">
                    <mxGeometry x="0.2106" y="-1" relative="1" as="geometry">
                        <mxPoint as="offset"/>
                    </mxGeometry>
                </mxCell>
                <mxCell id="8nafHXj3Q9hOZ4fB2ylQ-24" value="" style="endArrow=classic;html=1;exitX=0.5;exitY=0.5;exitDx=0;exitDy=0;exitPerimeter=0;entryX=0;entryY=0.5;entryDx=0;entryDy=0;" parent="1" source="8nafHXj3Q9hOZ4fB2ylQ-1" target="8nafHXj3Q9hOZ4fB2ylQ-8" edge="1">
                    <mxGeometry width="50" height="50" relative="1" as="geometry">
                        <mxPoint x="400" y="420" as="sourcePoint"/>
                        <mxPoint x="450" y="370" as="targetPoint"/>
                    </mxGeometry>
                </mxCell>
            </root>
        </mxGraphModel>
    </diagram>
</mxfile>